<?xml version="1.0" encoding="UTF-8" standalone="no"?>
<svg
   xmlns:dc="http://purl.org/dc/elements/1.1/"
   xmlns:cc="http://creativecommons.org/ns#"
   xmlns:rdf="http://www.w3.org/1999/02/22-rdf-syntax-ns#"
   xmlns:svg="http://www.w3.org/2000/svg"
   xmlns="http://www.w3.org/2000/svg"
   xmlns:sodipodi="http://sodipodi.sourceforge.net/DTD/sodipodi-0.dtd"
   xmlns:inkscape="http://www.inkscape.org/namespaces/inkscape"
   sodipodi:docname="logo.svg"
   inkscape:version="1.0 (4035a4f, 2020-05-01)"
   id="svg8"
   version="1.1"
   viewBox="0 0 246.87 49.374"
   height="300"
   width="1500"
   shape-rendering="crispEdges">
  <title
     id="title34">My Positive Outlooks Logo</title>
  <defs
     id="defs2">
    <rect
       id="rect12"
       height="12.114803"
       width="128.44175"
       y="74.839287"
       x="21.922619" />
  </defs>
  <sodipodi:namedview
     inkscape:pagecheckerboard="true"
     units="px"
     inkscape:window-maximized="0"
     inkscape:window-y="89"
     inkscape:window-x="0"
     inkscape:window-height="847"
     inkscape:window-width="1438"
     showgrid="false"
     inkscape:document-rotation="0"
     inkscape:current-layer="text10"
     inkscape:document-units="px"
     inkscape:cy="255.97346"
     inkscape:cx="1193.9161"
     inkscape:zoom="0.43852551"
     inkscape:pageshadow="2"
     inkscape:pageopacity="0.0"
     borderopacity="1.0"
     bordercolor="#666666"
     pagecolor="#ffffff"
     id="base"
     showborder="false"
     viewbox-height="79.075"
     scale-x="0.16458" />
  <metadata
     id="metadata5">
    <rdf:RDF>
      <cc:Work
         rdf:about="">
        <dc:format>image/svg+xml</dc:format>
        <dc:type
           rdf:resource="http://purl.org/dc/dcmitype/StillImage" />
        <dc:title>My Positive Outlooks Logo</dc:title>
        <dc:date>Jan 16, 2021</dc:date>
        <dc:creator>
          <cc:Agent>
            <dc:title>Todd Brockman</dc:title>
          </cc:Agent>
        </dc:creator>
        <dc:rights>
          <cc:Agent>
            <dc:title>Copyrighted</dc:title>
          </cc:Agent>
        </dc:rights>
        <dc:language>English</dc:language>
      </cc:Work>
    </rdf:RDF>
  </metadata>
  <g
     id="layer1"
     inkscape:groupmode="layer"
     inkscape:label="Layer 1">
    <g
       style="font-style:normal;font-variant:normal;font-weight:normal;font-stretch:normal;font-size:10.086px;line-height:1.25;font-family:'Avenir Next';-inkscape-font-specification:'Avenir Next';white-space:pre;shape-inside:url(#rect12);fill:#ff6600;fill-opacity:1;stroke:none"
       id="text10"
       transform="matrix(3.1641752,0,0,5.1132944,-70.087524,-374.52046)"
       aria-label="MY POSITIVE OUTLOOKS">
      <path
         id="path22"
         style="font-style:normal;font-variant:normal;font-weight:bold;font-stretch:normal;font-size:10.086px;font-family:'Avenir Next';-inkscape-font-specification:'Avenir Next Bold';fill:#ff6600"
         d="m 29.133365,83.484196 0.04034,-5.053086 h -0.03026 l -1.855824,5.053086 h -1.21032 L 24.271913,78.43111 h -0.03026 l 0.04034,5.053086 h -1.623846 v -7.140888 h 2.450898 l 1.623846,4.579044 h 0.04034 l 1.553244,-4.579044 h 2.491242 v 7.140888 z" />
      <path
         id="path24"
         style="font-style:normal;font-variant:normal;font-weight:bold;font-stretch:normal;font-size:10.086px;font-family:'Avenir Next';-inkscape-font-specification:'Avenir Next Bold';fill:#ff6600"
         d="m 35.760656,80.458396 v 3.0258 h -1.724707 v -3.0258 l -2.682876,-4.115088 h 2.087802 l 1.522987,2.642532 1.522986,-2.642532 h 2.0172 z" />
      <path
         id="path26"
         style="font-style:normal;font-variant:normal;font-weight:bold;font-stretch:normal;font-size:10.086px;font-family:'Avenir Next';-inkscape-font-specification:'Avenir Next Bold';fill:#ff6600"
         d="m 46.749195,78.542056 q 0,0.625332 -0.231978,1.05903 -0.231978,0.423612 -0.625332,0.685848 -0.393354,0.262236 -0.90774,0.383268 -0.514386,0.121032 -1.069116,0.121032 h -0.85731 v 2.692962 h -1.724706 v -7.140888 h 2.62236 q 0.584988,0 1.089288,0.121032 0.514386,0.110946 0.887568,0.373182 0.383268,0.25215 0.595074,0.675762 0.221892,0.413526 0.221892,1.028772 z m -1.724706,0.01009 q 0,-0.25215 -0.10086,-0.413526 -0.10086,-0.161376 -0.272322,-0.25215 -0.171462,-0.09077 -0.393354,-0.121032 -0.211806,-0.03026 -0.443784,-0.03026 h -0.75645 v 1.684362 h 0.726192 q 0.242064,0 0.463956,-0.04034 0.221892,-0.04034 0.393354,-0.141204 0.181548,-0.10086 0.282408,-0.262236 0.10086,-0.171462 0.10086,-0.423612 z" />
      <path
         id="path28"
         style="font-style:normal;font-variant:normal;font-weight:bold;font-stretch:normal;font-size:10.086px;font-family:'Avenir Next';-inkscape-font-specification:'Avenir Next Bold';fill:#ff6600"
         d="m 55.237825,79.883494 q 0,0.847224 -0.292494,1.553244 -0.292494,0.695934 -0.816966,1.200234 -0.514386,0.494214 -1.230492,0.766536 -0.716106,0.272322 -1.553244,0.272322 -0.837138,0 -1.553244,-0.272322 -0.70602,-0.272322 -1.230492,-0.766536 -0.514386,-0.5043 -0.80688,-1.200234 -0.292494,-0.70602 -0.292494,-1.553244 0,-0.85731 0.292494,-1.543158 0.292494,-0.695934 0.80688,-1.180062 0.524472,-0.484128 1.230492,-0.746364 0.716106,-0.262236 1.553244,-0.262236 0.837138,0 1.553244,0.262236 0.716106,0.262236 1.230492,0.746364 0.524472,0.484128 0.816966,1.180062 0.292494,0.685848 0.292494,1.543158 z m -1.845738,0 q 0,-0.463956 -0.15129,-0.867396 -0.15129,-0.40344 -0.423612,-0.685848 -0.262236,-0.292494 -0.645504,-0.45387 -0.373182,-0.171462 -0.827052,-0.171462 -0.45387,0 -0.827052,0.171462 -0.373182,0.161376 -0.645504,0.45387 -0.272322,0.282408 -0.423612,0.685848 -0.141204,0.40344 -0.141204,0.867396 0,0.484128 0.15129,0.897654 0.15129,0.40344 0.413526,0.695934 0.272322,0.292494 0.645504,0.463956 0.373182,0.161376 0.827052,0.161376 0.45387,0 0.827052,-0.161376 0.373182,-0.171462 0.645504,-0.463956 0.272322,-0.292494 0.423612,-0.695934 0.15129,-0.413526 0.15129,-0.897654 z" />
      <path
         id="path30"
         style="font-style:normal;font-variant:normal;font-weight:bold;font-stretch:normal;font-size:10.086px;font-family:'Avenir Next';-inkscape-font-specification:'Avenir Next Bold';fill:#ff6600"
         d="m 60.155381,78.199132 q -0.221892,-0.282408 -0.584989,-0.443784 -0.35301,-0.171462 -0.685848,-0.171462 -0.171462,0 -0.35301,0.03026 -0.171462,0.03026 -0.312666,0.121032 -0.141204,0.08069 -0.242064,0.221892 -0.09077,0.131118 -0.09077,0.342924 0,0.181548 0.0706,0.30258 0.08069,0.121032 0.221892,0.211806 0.15129,0.09077 0.35301,0.171462 0.20172,0.0706 0.45387,0.15129 0.363096,0.121032 0.756451,0.272322 0.393354,0.141204 0.716106,0.383268 0.322752,0.242064 0.534558,0.60516 0.211806,0.35301 0.211806,0.887568 0,0.615246 -0.231978,1.069116 -0.221892,0.443784 -0.60516,0.736278 -0.383268,0.292494 -0.877483,0.433698 -0.494214,0.141204 -1.018686,0.141204 -0.766536,0 -1.482642,-0.262236 -0.716106,-0.272322 -1.190148,-0.766536 l 1.129632,-1.149804 q 0.262236,0.322752 0.685848,0.544644 0.433698,0.211806 0.85731,0.211806 0.191634,0 0.373182,-0.04034 0.181548,-0.04034 0.312666,-0.131118 0.141204,-0.09077 0.221892,-0.242064 0.08069,-0.15129 0.08069,-0.363096 0,-0.20172 -0.10086,-0.342924 -0.10086,-0.141204 -0.292494,-0.25215 -0.181548,-0.121032 -0.463956,-0.211806 -0.272322,-0.10086 -0.625332,-0.211806 -0.342924,-0.110946 -0.675762,-0.262236 -0.322752,-0.15129 -0.584988,-0.383268 -0.25215,-0.242064 -0.413526,-0.574902 -0.15129,-0.342924 -0.15129,-0.827052 0,-0.595074 0.242064,-1.018686 0.242064,-0.423612 0.635418,-0.695934 0.393354,-0.272322 0.887568,-0.393354 0.494214,-0.131118 0.998514,-0.131118 0.60516,0 1.230493,0.221892 0.635418,0.221892 1.10946,0.65559 z" />
      <path
         id="path32"
         style="font-style:normal;font-variant:normal;font-weight:bold;font-stretch:normal;font-size:10.086px;font-family:'Avenir Next';-inkscape-font-specification:'Avenir Next Bold';fill:#ff6600"
         d="m 62.352081,83.484196 v -7.140888 h 1.734792 v 7.140888 z" />
      <path
         id="path34"
         style="font-style:normal;font-variant:normal;font-weight:bold;font-stretch:normal;font-size:10.086px;font-family:'Avenir Next';-inkscape-font-specification:'Avenir Next Bold';fill:#ff6600"
         d="m 68.619111,77.815864 v 5.668332 h -1.724706 v -5.668332 h -2.0172 v -1.472556 h 5.759106 v 1.472556 z" />
      <path
         id="path36"
         style="font-style:normal;font-variant:normal;font-weight:bold;font-stretch:normal;font-size:10.086px;font-family:'Avenir Next';-inkscape-font-specification:'Avenir Next Bold';fill:#ff6600"
         d="m 71.413722,83.484196 v -7.140888 h 1.734793 v 7.140888 z" />
      <path
         id="path38"
         style="font-style:normal;font-variant:normal;font-weight:bold;font-stretch:normal;font-size:10.086px;font-family:'Avenir Next';-inkscape-font-specification:'Avenir Next Bold';fill:#ff6600"
         d="m 78.16488,83.484196 h -1.724706 l -2.703048,-7.140888 h 1.936512 l 1.654104,5.063172 h 0.04034 l 1.644019,-5.063172 h 1.906254 z" />
      <path
         id="path40"
         style="font-style:normal;font-variant:normal;font-weight:bold;font-stretch:normal;font-size:10.086px;font-family:'Avenir Next';-inkscape-font-specification:'Avenir Next Bold';fill:#ff6600"
         d="m 81.499721,83.484196 v -7.140888 h 4.800936 v 1.46247 h -3.136746 v 1.341438 h 2.965284 v 1.381782 h -2.965284 v 1.482642 h 3.318294 v 1.472556 z" />
      <path
         id="path42"
         style="font-style:normal;font-variant:normal;font-weight:bold;font-stretch:normal;font-size:10.086px;font-family:'Avenir Next';-inkscape-font-specification:'Avenir Next Bold';fill:#ff6600"
         d="m 97.591146,79.883494 q 0,0.847224 -0.292494,1.553244 -0.292494,0.695934 -0.816966,1.200234 -0.514386,0.494214 -1.230492,0.766536 -0.716106,0.272322 -1.553244,0.272322 -0.837138,0 -1.553244,-0.272322 -0.70602,-0.272322 -1.230492,-0.766536 -0.514386,-0.5043 -0.80688,-1.200234 -0.292494,-0.70602 -0.292494,-1.553244 0,-0.85731 0.292494,-1.543158 0.292494,-0.695934 0.80688,-1.180062 0.524472,-0.484128 1.230492,-0.746364 0.716106,-0.262236 1.553244,-0.262236 0.837138,0 1.553244,0.262236 0.716106,0.262236 1.230492,0.746364 0.524472,0.484128 0.816966,1.180062 0.292494,0.685848 0.292494,1.543158 z m -1.845738,0 q 0,-0.463956 -0.15129,-0.867396 -0.15129,-0.40344 -0.423612,-0.685848 -0.262236,-0.292494 -0.645504,-0.45387 -0.373182,-0.171462 -0.827052,-0.171462 -0.45387,0 -0.827052,0.171462 -0.373182,0.161376 -0.645504,0.45387 -0.272322,0.282408 -0.423612,0.685848 -0.141204,0.40344 -0.141204,0.867396 0,0.484128 0.15129,0.897654 0.15129,0.40344 0.413526,0.695934 0.272322,0.292494 0.645504,0.463956 0.373182,0.161376 0.827052,0.161376 0.45387,0 0.827052,-0.161376 0.373182,-0.171462 0.645504,-0.463956 0.272322,-0.292494 0.423612,-0.695934 0.15129,-0.413526 0.15129,-0.897654 z" />
      <path
         id="path44"
         style="font-style:normal;font-variant:normal;font-weight:bold;font-stretch:normal;font-size:10.086px;font-family:'Avenir Next';-inkscape-font-specification:'Avenir Next Bold';fill:#ff6600"
         d="m 104.78814,80.791234 q 0,0.645504 -0.22189,1.180062 -0.21181,0.524472 -0.61525,0.90774 -0.40344,0.373182 -0.97834,0.584988 -0.56482,0.211806 -1.26075,0.211806 -0.70602,0 -1.27084,-0.211806 -0.564815,-0.211806 -0.958169,-0.584988 -0.393354,-0.383268 -0.60516,-0.90774 -0.211806,-0.534558 -0.211806,-1.180062 v -4.447926 h 1.714625 v 4.306722 q 0,0.292494 0.0706,0.55473 0.0807,0.262236 0.23198,0.474042 0.16137,0.20172 0.41352,0.322752 0.26224,0.121032 0.62533,0.121032 0.3631,0 0.61525,-0.121032 0.26224,-0.121032 0.42361,-0.322752 0.16138,-0.211806 0.23198,-0.474042 0.0706,-0.262236 0.0706,-0.55473 v -4.306722 h 1.72471 v 4.447926 z" />
      <path
         id="path46"
         style="font-style:normal;font-variant:normal;font-weight:bold;font-stretch:normal;font-size:10.086px;font-family:'Avenir Next';-inkscape-font-specification:'Avenir Next Bold';fill:#ff6600"
         d="m 109.2389,77.815864 v 5.668332 h -1.72471 v -5.668332 h -2.0172 v -1.472556 h 5.75911 v 1.472556 z" />
      <path
         id="path48"
         style="font-style:normal;font-variant:normal;font-weight:bold;font-stretch:normal;font-size:10.086px;font-family:'Avenir Next';-inkscape-font-specification:'Avenir Next Bold';fill:#ff6600"
         d="m 112.03351,83.484196 v -7.140888 h 1.73479 v 5.638074 h 2.76357 v 1.502814 z" />
      <path
         id="path50"
         style="font-style:normal;font-variant:normal;font-weight:bold;font-stretch:normal;font-size:10.086px;font-family:'Avenir Next';-inkscape-font-specification:'Avenir Next Bold';fill:#ff6600"
         d="m 124.48058,79.883494 q 0,0.847224 -0.29249,1.553244 -0.2925,0.695934 -0.81697,1.200234 -0.51439,0.494214 -1.23049,0.766536 -0.71611,0.272322 -1.55325,0.272322 -0.83713,0 -1.55324,-0.272322 -0.70602,-0.272322 -1.23049,-0.766536 -0.51439,-0.5043 -0.80688,-1.200234 -0.2925,-0.70602 -0.2925,-1.553244 0,-0.85731 0.2925,-1.543158 0.29249,-0.695934 0.80688,-1.180062 0.52447,-0.484128 1.23049,-0.746364 0.71611,-0.262236 1.55324,-0.262236 0.83714,0 1.55325,0.262236 0.7161,0.262236 1.23049,0.746364 0.52447,0.484128 0.81697,1.180062 0.29249,0.685848 0.29249,1.543158 z m -1.84574,0 q 0,-0.463956 -0.15129,-0.867396 -0.15129,-0.40344 -0.42361,-0.685848 -0.26224,-0.292494 -0.6455,-0.45387 -0.37319,-0.171462 -0.82706,-0.171462 -0.45387,0 -0.82705,0.171462 -0.37318,0.161376 -0.6455,0.45387 -0.27232,0.282408 -0.42361,0.685848 -0.14121,0.40344 -0.14121,0.867396 0,0.484128 0.15129,0.897654 0.15129,0.40344 0.41353,0.695934 0.27232,0.292494 0.6455,0.463956 0.37318,0.161376 0.82705,0.161376 0.45387,0 0.82706,-0.161376 0.37318,-0.171462 0.6455,-0.463956 0.27232,-0.292494 0.42361,-0.695934 0.15129,-0.413526 0.15129,-0.897654 z" />
      <path
         id="path52"
         style="font-style:normal;font-variant:normal;font-weight:bold;font-stretch:normal;font-size:10.086px;font-family:'Avenir Next';-inkscape-font-specification:'Avenir Next Bold';fill:#ff6600"
         d="m 133.06944,79.883494 q 0,0.847224 -0.29249,1.553244 -0.2925,0.695934 -0.81697,1.200234 -0.51439,0.494214 -1.23049,0.766536 -0.71611,0.272322 -1.55325,0.272322 -0.83713,0 -1.55324,-0.272322 -0.70602,-0.272322 -1.23049,-0.766536 -0.51439,-0.5043 -0.80688,-1.200234 -0.2925,-0.70602 -0.2925,-1.553244 0,-0.85731 0.2925,-1.543158 0.29249,-0.695934 0.80688,-1.180062 0.52447,-0.484128 1.23049,-0.746364 0.71611,-0.262236 1.55324,-0.262236 0.83714,0 1.55325,0.262236 0.7161,0.262236 1.23049,0.746364 0.52447,0.484128 0.81697,1.180062 0.29249,0.685848 0.29249,1.543158 z m -1.84574,0 q 0,-0.463956 -0.15129,-0.867396 -0.15129,-0.40344 -0.42361,-0.685848 -0.26224,-0.292494 -0.6455,-0.45387 -0.37319,-0.171462 -0.82706,-0.171462 -0.45387,0 -0.82705,0.171462 -0.37318,0.161376 -0.6455,0.45387 -0.27232,0.282408 -0.42361,0.685848 -0.14121,0.40344 -0.14121,0.867396 0,0.484128 0.15129,0.897654 0.15129,0.40344 0.41353,0.695934 0.27232,0.292494 0.6455,0.463956 0.37318,0.161376 0.82705,0.161376 0.45387,0 0.82706,-0.161376 0.37318,-0.171462 0.6455,-0.463956 0.27232,-0.292494 0.42361,-0.695934 0.15129,-0.413526 0.15129,-0.897654 z" />
      <path
         id="path54"
         style="font-style:normal;font-variant:normal;font-weight:bold;font-stretch:normal;font-size:10.086px;font-family:'Avenir Next';-inkscape-font-specification:'Avenir Next Bold';fill:#ff6600"
         d="m 138.58207,83.484196 -2.65262,-3.288036 h -0.0202 v 3.288036 h -1.69445 v -7.140888 h 1.69445 v 2.904768 h 0.0303 l 2.55176,-2.904768 h 2.1584 l -3.07623,3.288036 3.25778,3.852852 z" />
      <path
         id="path56"
         style="font-style:normal;font-variant:normal;font-weight:bold;font-stretch:normal;font-size:10.086px;font-family:'Avenir Next';-inkscape-font-specification:'Avenir Next Bold';fill:#ff6600"
         d="m 145.15751,78.199132 q -0.22189,-0.282408 -0.58499,-0.443784 -0.35301,-0.171462 -0.68584,-0.171462 -0.17147,0 -0.35301,0.03026 -0.17147,0.03026 -0.31267,0.121032 -0.1412,0.08069 -0.24206,0.221892 -0.0908,0.131118 -0.0908,0.342924 0,0.181548 0.0706,0.30258 0.0807,0.121032 0.2219,0.211806 0.15129,0.09077 0.35301,0.171462 0.20172,0.0706 0.45387,0.15129 0.36309,0.121032 0.75645,0.272322 0.39335,0.141204 0.7161,0.383268 0.32275,0.242064 0.53456,0.60516 0.21181,0.35301 0.21181,0.887568 0,0.615246 -0.23198,1.069116 -0.22189,0.443784 -0.60516,0.736278 -0.38327,0.292494 -0.87748,0.433698 -0.49422,0.141204 -1.01869,0.141204 -0.76654,0 -1.48264,-0.262236 -0.71611,-0.272322 -1.19015,-0.766536 l 1.12963,-1.149804 q 0.26224,0.322752 0.68585,0.544644 0.4337,0.211806 0.85731,0.211806 0.19163,0 0.37318,-0.04034 0.18155,-0.04034 0.31267,-0.131118 0.1412,-0.09077 0.22189,-0.242064 0.0807,-0.15129 0.0807,-0.363096 0,-0.20172 -0.10086,-0.342924 -0.10086,-0.141204 -0.2925,-0.25215 -0.18154,-0.121032 -0.46395,-0.211806 -0.27232,-0.10086 -0.62533,-0.211806 -0.34293,-0.110946 -0.67577,-0.262236 -0.32275,-0.15129 -0.58498,-0.383268 -0.25215,-0.242064 -0.41353,-0.574902 -0.15129,-0.342924 -0.15129,-0.827052 0,-0.595074 0.24206,-1.018686 0.24207,-0.423612 0.63542,-0.695934 0.39336,-0.272322 0.88757,-0.393354 0.49421,-0.131118 0.99851,-0.131118 0.60516,0 1.2305,0.221892 0.63541,0.221892 1.10946,0.65559 z" />
    </g>
  </g>
</svg>
